<?xml version="1.0" standalone="no"?>
<!DOCTYPE svg PUBLIC "-//W3C//DTD SVG 20010904//EN"
 "http://www.w3.org/TR/2001/REC-SVG-20010904/DTD/svg10.dtd">
<svg version="1.0" xmlns="http://www.w3.org/2000/svg"
 width="2954.000000pt" height="1000.000000pt" viewBox="0 0 2954.000000 1000.000000"
 preserveAspectRatio="xMidYMid meet">

<g transform="translate(0.000000,1000.000000) scale(0.100000,-0.100000)"
fill="#000000" stroke="none">
<path d="M1065 9993 c-521 -68 -929 -441 -1041 -953 -18 -82 -19 -218 -19
-4040 0 -3822 1 -3958 19 -4040 103 -473 463 -833 936 -936 83 -18 455 -19
13810 -19 13355 0 13727 1 13810 19 473 103 833 463 936 936 18 82 19 218 19
4040 0 3822 -1 3958 -19 4040 -102 466 -444 814 -916 933 l-85 22 -13710 1
c-7541 0 -13723 -1 -13740 -3z m4985 -1862 c0 -607 -502 -1180 -1045 -1194
l-90 -2 1 120 c0 187 47 352 151 541 127 228 330 416 576 533 126 59 290 107
380 110 l27 1 0 -109z m8040 -726 l0 -765 -115 0 -115 0 0 765 0 765 115 0
115 0 0 -765z m1820 443 l0 -322 30 40 c98 134 321 180 486 99 107 -52 200
-180 235 -325 19 -77 17 -260 -4 -340 -63 -240 -229 -382 -445 -381 -130 0
-232 48 -296 138 l-31 45 -9 -81 -9 -81 -100 0 -100 0 6 68 c4 37 7 381 7 765
l0 697 115 0 115 0 0 -322z m1348 -445 l2 -763 -120 0 -120 0 0 758 c0 417 3
762 7 766 4 3 57 5 117 4 l111 -3 3 -762z m6522 453 l0 -314 58 57 c73 73 144
103 252 105 174 2 293 -93 348 -279 11 -39 16 -132 19 -417 l5 -368 -121 0
-121 0 0 338 c0 369 -5 411 -56 472 -39 46 -81 63 -149 64 -74 0 -144 -31
-180 -78 -52 -69 -55 -92 -55 -457 l0 -339 -115 0 -115 0 0 765 0 765 115 0
115 0 0 -314z m-10372 255 c84 -45 79 -190 -8 -233 -104 -52 -210 11 -210 125
0 105 116 163 218 108z m-3234 -158 c25 -76 122 -376 216 -668 94 -291 179
-556 190 -587 l19 -58 -124 0 -124 0 -59 188 c-33 103 -63 197 -67 210 l-6 22
-239 0 -238 0 -14 -47 c-8 -27 -37 -121 -63 -210 l-49 -163 -118 0 c-73 0
-118 4 -118 10 0 9 110 355 376 1178 l85 262 144 0 143 0 46 -137z m12796
-138 l0 -125 125 0 125 0 0 -90 0 -90 -126 0 -125 0 3 -302 c3 -267 5 -307 21
-335 26 -49 67 -66 149 -61 l68 4 0 -88 c0 -87 0 -88 -27 -95 -16 -5 -77 -8
-138 -8 -96 0 -116 3 -158 24 -57 27 -100 82 -124 155 -14 42 -17 106 -21 379
l-3 327 -75 0 -74 0 0 90 0 90 75 0 75 0 0 93 0 94 98 30 c144 46 132 54 132
-92z m-10485 -115 c161 -24 257 -108 302 -265 11 -35 16 -125 19 -305 2 -140
6 -308 7 -372 l3 -118 -102 0 -103 0 -6 48 c-10 72 -11 73 -57 28 -81 -78
-194 -111 -321 -94 -183 24 -300 196 -257 379 42 183 215 290 493 306 l107 6
0 41 c-1 86 -53 155 -134 177 -88 24 -204 5 -342 -57 -11 -5 -54 102 -54 133
0 26 136 79 242 92 90 12 124 12 203 1z m2547 -20 c103 -32 185 -116 218 -225
8 -26 15 -168 20 -410 4 -203 11 -378 15 -387 7 -17 -2 -18 -98 -18 l-105 0
-6 30 c-3 17 -9 43 -12 59 l-5 30 -39 -39 c-103 -103 -292 -134 -425 -70 -64
31 -132 110 -151 178 -34 118 0 255 86 339 85 84 264 143 433 143 l77 0 0 33
c0 137 -92 206 -259 194 -69 -4 -113 -17 -218 -64 -13 -5 -22 11 -46 95 l-15
50 55 27 c53 25 140 49 213 58 65 9 197 -3 262 -23z m3149 20 c159 -30 272
-138 323 -310 19 -63 32 -215 22 -254 l-6 -26 -345 0 c-189 0 -346 -4 -349 -9
-12 -19 19 -126 48 -170 34 -51 108 -105 164 -121 20 -5 78 -10 127 -10 77 0
128 8 251 37 18 4 22 -4 37 -73 13 -61 14 -80 5 -85 -7 -5 -49 -18 -93 -30
-107 -30 -340 -33 -425 -6 -118 37 -220 119 -274 216 -86 160 -87 403 -1 577
98 201 301 304 516 264z m1935 -21 c207 -64 333 -257 334 -510 0 -99 -25 -210
-66 -290 -56 -112 -174 -206 -307 -244 -75 -22 -219 -22 -294 0 -169 49 -296
188 -339 372 -23 97 -15 264 17 358 90 267 370 401 655 314z m1334 11 c95 -26
172 -105 220 -223 25 -62 25 -63 28 -444 l3 -383 -115 0 -116 0 0 330 c0 200
-4 349 -11 380 -17 78 -62 131 -133 154 -50 16 -65 17 -110 7 -68 -15 -131
-68 -162 -135 -24 -50 -24 -55 -24 -393 l0 -343 -120 0 -120 0 0 525 0 525 99
0 99 0 7 -85 7 -85 33 43 c91 119 260 171 415 127z m3862 9 c212 -45 338 -228
338 -491 l0 -98 -351 0 -352 0 5 -49 c11 -114 93 -214 201 -246 88 -26 250
-17 383 21 20 5 23 -1 40 -71 21 -90 26 -84 -91 -116 -167 -45 -378 -34 -502
27 -196 95 -296 335 -249 594 54 302 304 487 578 429z m-14187 -366 c63 -194
119 -378 126 -408 7 -31 15 -52 19 -48 4 4 16 44 28 88 24 90 218 701 227 716
4 5 58 9 121 9 86 0 114 -3 114 -13 0 -7 -87 -242 -193 -522 l-193 -510 -115
-3 -114 -3 -188 513 c-103 282 -187 519 -187 526 0 10 28 12 121 10 l121 -3
113 -352z m2315 -168 l0 -525 -115 0 -115 0 0 518 c0 285 3 522 7 525 3 4 55
7 115 7 l108 0 0 -525z m-7175 -323 c252 -55 460 -162 636 -329 91 -87 173
-186 167 -201 -1 -5 -39 -37 -84 -70 -45 -34 -119 -102 -167 -151 -232 -244
-347 -528 -347 -855 0 -277 75 -517 228 -729 107 -149 303 -314 465 -394 69
-33 68 -26 12 -180 -62 -168 -196 -427 -314 -606 -253 -383 -407 -555 -582
-651 -110 -60 -171 -77 -300 -83 -150 -7 -223 8 -439 94 -205 82 -266 99 -397
115 -80 9 -129 9 -216 0 -146 -16 -196 -30 -409 -113 -241 -94 -279 -104 -423
-103 -139 0 -198 16 -316 87 -228 136 -571 571 -779 990 -150 301 -264 631
-324 942 -40 208 -50 319 -50 565 0 212 3 263 23 375 68 383 215 680 452 915
237 235 523 365 866 395 164 14 332 -24 632 -141 347 -136 360 -136 716 1 356
137 444 156 685 151 122 -3 202 -10 265 -24z m12550 -1237 c122 -19 225 -46
322 -86 40 -17 73 -32 73 -32 -5 -34 -120 -381 -126 -380 -5 2 -48 18 -95 38
-146 59 -227 76 -401 82 -105 4 -179 2 -220 -6 -86 -17 -196 -72 -248 -123
-84 -84 -123 -212 -100 -325 37 -178 170 -286 540 -438 247 -102 416 -204 534
-323 162 -164 220 -309 221 -552 0 -172 -19 -258 -88 -393 -97 -191 -274 -336
-499 -411 -287 -96 -732 -92 -1021 9 -74 26 -217 95 -217 104 0 10 102 375
107 383 2 4 43 -12 91 -36 230 -115 547 -165 770 -121 266 53 420 252 382 493
-33 206 -166 322 -540 470 -416 164 -646 365 -730 637 -46 153 -34 355 32 514
106 253 391 454 713 500 102 15 391 12 500 -4z m-7608 -1482 c260 -802 475
-1466 478 -1475 7 -17 -9 -18 -246 -18 l-254 0 -78 248 c-43 136 -105 331
-138 435 l-60 187 -479 0 c-447 0 -479 -1 -484 -17 -3 -10 -50 -169 -106 -353
-56 -184 -113 -372 -126 -417 l-25 -83 -245 0 -245 0 7 23 c42 136 937 2914
941 2920 2 4 136 7 297 7 l292 0 471 -1457z m9163 902 l0 -265 260 0 260 0 0
-180 0 -180 -260 0 -261 0 3 -597 3 -598 24 -58 c49 -124 121 -170 261 -170
47 0 109 4 137 8 l50 7 6 -44 c4 -24 7 -104 8 -178 l2 -135 -64 -18 c-83 -22
-272 -36 -376 -26 -149 13 -285 76 -367 170 -54 62 -103 170 -128 280 -20 89
-22 127 -25 727 l-4 632 -155 0 -154 0 0 180 0 180 155 0 155 0 0 194 0 195
58 16 c31 9 134 41 227 70 94 29 173 53 178 54 4 0 7 -118 7 -264z m-6905
-250 c273 -76 496 -302 598 -607 40 -119 58 -229 64 -388 20 -517 -178 -923
-540 -1104 -121 -61 -223 -86 -372 -93 -156 -7 -283 18 -400 77 -84 42 -132
81 -203 165 l-42 50 0 -557 0 -558 -234 0 -234 0 -6 1438 c-3 790 -8 1465 -12
1500 l-6 62 211 0 c194 0 211 -1 211 -17 0 -56 24 -323 29 -323 4 0 15 14 24
30 28 47 94 120 155 172 93 80 233 142 379 168 73 14 308 4 378 -15z m2375 14
c303 -49 562 -288 673 -621 40 -119 58 -229 64 -388 20 -517 -178 -923 -540
-1104 -121 -61 -223 -86 -372 -93 -265 -12 -461 68 -608 247 l-37 45 0 -557 0
-558 -234 0 -234 0 -6 1428 c-3 785 -9 1460 -12 1500 l-6 72 210 0 209 0 13
-167 c11 -161 17 -194 27 -165 11 30 107 140 164 189 174 147 438 213 689 172z
m6615 -12 c342 -76 591 -296 709 -627 102 -284 92 -675 -25 -957 -45 -106
-140 -246 -223 -328 -203 -201 -472 -297 -791 -282 -125 6 -221 23 -315 55
-420 146 -683 587 -657 1102 10 199 48 354 123 503 57 115 92 164 178 255 149
157 323 247 553 288 100 17 352 12 448 -9z m2317 -14 c5 -18 7 -119 6 -224
l-3 -192 -120 2 c-97 2 -132 -2 -185 -18 -125 -39 -222 -129 -282 -259 -62
-135 -61 -128 -65 -814 l-4 -628 -235 0 -234 0 0 848 c0 466 -3 945 -7 1065
l-6 217 205 0 205 0 6 -127 c4 -71 7 -163 7 -205 0 -43 4 -78 9 -78 5 0 17 21
27 47 49 128 190 285 306 342 95 46 160 60 267 58 l95 -2 8 -32z m1488 12
c272 -73 469 -271 569 -570 51 -155 75 -403 55 -572 l-7 -53 -708 0 -709 0 0
-47 c1 -208 130 -418 311 -506 127 -63 179 -72 394 -71 205 1 310 16 463 68
39 14 72 23 72 21 0 -2 16 -72 35 -156 20 -84 33 -158 31 -165 -7 -19 -208
-80 -343 -106 -163 -30 -504 -33 -633 -4 -415 91 -675 354 -766 778 -23 104
-26 416 -6 523 48 249 143 441 297 604 139 146 305 236 502 271 81 15 369 5
443 -15z"/>
<path d="M16059 7493 c-109 -56 -149 -146 -149 -338 0 -148 15 -205 70 -267
136 -155 374 -95 438 111 27 88 23 268 -7 345 -61 154 -214 218 -352 149z"/>
<path d="M9945 7778 c-15 -62 -56 -204 -91 -315 -35 -111 -64 -207 -64 -212 0
-7 64 -11 190 -11 117 0 190 4 190 10 0 5 -27 92 -60 192 -32 101 -75 241 -94
312 -20 71 -37 131 -39 133 -3 2 -17 -47 -32 -109z"/>
<path d="M12405 7145 c-156 -28 -229 -107 -211 -228 17 -115 136 -162 262
-103 92 43 124 108 124 252 l0 94 -52 -1 c-29 0 -85 -7 -123 -14z"/>
<path d="M14887 7149 c-67 -10 -141 -40 -176 -72 -69 -64 -68 -191 3 -257 21
-19 40 -25 91 -28 55 -4 73 0 119 22 57 28 99 78 116 137 6 19 10 73 10 121
l0 88 -52 -1 c-29 -1 -79 -5 -111 -10z"/>
<path d="M18024 7541 c-94 -24 -172 -116 -193 -226 l-8 -45 245 0 245 0 -7 43
c-16 103 -61 179 -125 212 -35 18 -117 26 -157 16z"/>
<path d="M19862 7521 c-29 -10 -69 -34 -88 -52 -79 -77 -124 -239 -104 -379
20 -142 73 -231 165 -276 107 -52 224 -21 295 77 93 129 106 351 29 501 -31
60 -94 116 -152 133 -64 19 -80 19 -145 -4z"/>
<path d="M25136 7538 c-58 -16 -138 -99 -165 -171 -38 -105 -56 -97 220 -97
l242 0 -7 56 c-6 56 -34 123 -65 158 -43 49 -151 75 -225 54z"/>
<path d="M10415 5164 c-48 -213 -150 -576 -252 -897 -69 -218 -124 -400 -121
-402 3 -3 180 -4 394 -3 l390 3 -133 410 c-74 226 -163 523 -199 660 -37 138
-68 252 -70 254 -2 2 -6 -10 -9 -25z"/>
<path d="M12938 4396 c-183 -65 -311 -223 -353 -434 -24 -117 -17 -549 9 -632
84 -264 306 -409 569 -371 146 20 254 86 338 204 104 148 144 298 143 542 0
173 -19 277 -70 394 -52 118 -149 223 -254 276 -101 52 -270 61 -382 21z"/>
<path d="M15395 4400 c-164 -52 -296 -198 -350 -385 -27 -91 -33 -523 -10
-638 58 -284 296 -458 577 -419 283 40 459 283 484 670 22 338 -105 634 -320
744 -100 51 -268 64 -381 28z"/>
<path d="M22135 4449 c-155 -15 -275 -92 -365 -235 -154 -244 -181 -638 -63
-918 86 -205 231 -330 411 -355 205 -27 368 52 486 237 80 125 119 248 136
419 28 293 -59 575 -225 732 -98 93 -231 135 -380 120z"/>
<path d="M25890 4470 c-149 -27 -273 -125 -355 -281 -35 -66 -75 -198 -75
-246 l0 -23 490 0 490 0 0 48 c-1 133 -67 301 -154 387 -98 98 -246 141 -396
115z"/>
</g>
</svg>
