<?xml version="1.0" standalone="no"?>
<!DOCTYPE svg PUBLIC "-//W3C//DTD SVG 20010904//EN"
 "http://www.w3.org/TR/2001/REC-SVG-20010904/DTD/svg10.dtd">
<svg version="1.0" xmlns="http://www.w3.org/2000/svg"
 width="1000.000000pt" height="400.000000pt" viewBox="0 0 1000.000000 400.000000"
 preserveAspectRatio="xMidYMid meet">

<g transform="translate(0.000000,400.000000) scale(0.100000,-0.100000)"
fill="#000000" stroke="none">
<path d="M445 3684 c-160 -31 -301 -136 -369 -275 -68 -138 -66 -100 -66
-1397 0 -1113 1 -1171 20 -1260 40 -197 180 -348 365 -397 53 -13 554 -15
4625 -15 4073 0 4572 2 4624 15 129 34 236 116 290 224 58 113 57 84 54 1436
-3 1369 1 1281 -66 1415 -39 79 -135 173 -214 210 -138 65 224 60 -4706 59
-3778 -1 -4498 -3 -4557 -15z m2243 -453 c20 -11 50 -32 65 -49 l28 -29 -32
-21 -33 -20 -28 23 c-68 57 -153 55 -223 -6 -87 -77 -64 -244 40 -294 46 -21
130 -17 169 8 21 14 26 25 26 57 l0 40 -75 0 -75 0 0 40 0 41 118 -3 117 -3 3
-89 c3 -100 -1 -110 -76 -153 -96 -57 -238 -38 -318 43 -127 126 -78 360 87
420 55 20 164 17 207 -5z m550 -23 l3 -38 -130 0 -131 0 0 -65 0 -65 126 0
125 0 -3 -37 -3 -38 -120 -2 -120 -1 0 -69 0 -68 125 -1 125 -1 3 -37 3 -36
-175 0 -176 0 0 243 c0 134 3 247 7 251 4 3 81 5 172 4 l166 -3 3 -37z m480 0
l3 -38 -75 0 -76 0 0 -210 0 -210 -45 0 -45 0 0 210 0 210 -75 0 -75 0 0 40 0
40 193 -2 192 -3 3 -37z m392 -208 l0 -250 -45 0 -45 0 0 243 c0 134 3 247 7
250 3 4 24 7 45 7 l38 0 0 -250z m480 210 l0 -40 -75 0 -75 0 0 -210 0 -210
-45 0 -45 0 0 210 0 210 -75 0 -75 0 0 33 c0 19 3 37 7 40 3 4 91 7 195 7
l188 0 0 -40z m656 16 c84 -39 134 -122 134 -223 0 -80 -14 -122 -56 -171 -46
-54 -102 -83 -175 -89 -155 -14 -274 97 -273 256 1 75 18 122 63 173 48 55
103 78 186 78 53 0 83 -6 121 -24z m454 -149 l125 -168 3 171 2 171 43 -3 42
-3 3 -247 2 -248 -44 0 -44 0 -128 177 -129 176 -3 -177 -2 -177 -41 3 -40 3
0 243 c1 133 1 245 1 248 0 3 19 4 43 2 42 -3 42 -3 167 -171z m-4657 -1004
c287 -157 592 -324 677 -370 174 -95 200 -115 200 -153 0 -15 -10 -35 -22 -47
-24 -21 -351 -203 -365 -203 -5 0 -64 56 -133 125 l-125 125 -406 -406 c-297
-297 -411 -405 -423 -401 -9 4 -21 18 -26 32 -11 30 -12 860 0 1100 4 107 7
127 8 68 2 -71 4 -81 20 -78 9 2 17 4 17 5 0 1 7 3 15 5 8 2 26 7 40 10 14 4
38 8 53 11 16 2 33 6 38 9 5 4 19 8 31 11 34 8 161 34 175 36 6 1 9 8 6 17 -3
9 18 -7 48 -34 146 -136 111 -96 -133 150 -148 149 -268 274 -268 279 0 20 80
-20 573 -291z m5056 168 l-29 -29 0 -489 c0 -269 4 -494 9 -502 5 -8 32 -16
65 -19 61 -5 69 -13 31 -30 -26 -12 -295 -18 -295 -7 0 3 9 18 20 33 20 26 20
40 18 522 l-3 494 -52 -3 c-29 -1 -53 2 -53 6 0 5 21 19 48 30 38 17 69 21
159 22 l111 1 -29 -29z m-2980 -62 c75 -19 160 -55 195 -81 17 -14 15 -17 -39
-69 -57 -55 -91 -77 -101 -66 -3 3 2 16 10 30 16 24 15 25 -28 61 -77 63 -148
89 -252 94 -111 5 -192 -18 -268 -76 -259 -196 -196 -669 110 -830 117 -61
283 -78 397 -41 l37 12 0 120 0 120 -105 -5 c-58 -3 -105 -3 -105 -2 0 2 27
17 60 34 58 29 63 30 205 30 80 0 145 -3 145 -7 0 -4 -10 -17 -22 -30 -19 -21
-22 -36 -25 -150 l-3 -128 -93 -22 c-120 -30 -276 -53 -355 -53 -327 -1 -562
224 -562 536 1 284 201 502 500 545 76 10 210 1 299 -22z m4951 -529 l0 -510
-40 0 -40 0 0 510 0 510 40 0 40 0 0 -510z m-373 214 c128 -62 190 -194 181
-385 -6 -114 -32 -188 -89 -252 -115 -132 -328 -138 -452 -13 -20 20 -38 36
-39 36 -2 0 -2 -88 0 -195 l3 -195 -41 0 -40 0 0 511 0 510 38 -3 c37 -3 37
-4 39 -48 1 -25 2 -49 2 -54 1 -5 10 3 22 18 26 33 99 76 158 93 62 17 154 8
218 -23z m953 11 c60 -21 106 -59 132 -108 22 -40 23 -57 28 -317 3 -151 8
-282 10 -290 4 -11 -5 -16 -34 -18 -21 -2 -43 1 -48 6 -5 5 -11 32 -15 60 l-6
51 -49 -44 c-71 -64 -142 -88 -245 -83 -69 4 -89 9 -129 34 -126 78 -128 252
-4 335 67 45 130 60 285 65 l140 5 3 47 c5 70 -6 108 -40 147 -60 69 -203 83
-295 29 -42 -24 -73 -67 -73 -99 0 -11 -11 -15 -40 -15 -36 0 -40 2 -40 26 0
60 64 136 140 166 77 30 199 32 280 3z m-4638 -18 c112 -55 194 -176 205 -305
18 -212 -142 -393 -360 -409 -168 -13 -307 60 -380 202 -30 56 -32 67 -32 165
0 125 17 171 91 251 92 97 176 130 324 126 81 -2 104 -7 152 -30z m841 -2 c74
-37 148 -117 178 -193 18 -43 23 -77 23 -142 1 -75 -3 -93 -31 -151 -40 -85
-88 -138 -160 -176 -250 -131 -540 -2 -581 260 -30 188 81 360 273 424 25 8
76 12 140 10 87 -3 108 -7 158 -32z m1805 21 c75 -27 141 -94 157 -159 6 -23
-2 -27 -182 -100 -124 -51 -202 -77 -228 -77 -22 0 -46 -4 -54 -9 -28 -18 17
-131 82 -206 80 -93 212 -128 332 -87 33 11 61 19 63 18 9 -10 -85 -77 -132
-95 -77 -29 -194 -29 -270 0 -148 55 -249 232 -233 407 14 147 109 263 250
307 57 18 165 18 215 1z m-838 -3 c0 -20 -82 -53 -130 -53 l-52 0 41 -47 c103
-116 88 -268 -35 -369 -53 -44 -78 -87 -70 -120 3 -12 32 -43 64 -67 123 -96
162 -156 162 -247 0 -88 -46 -166 -131 -221 -200 -128 -535 -85 -605 78 -31
73 -5 175 58 228 67 56 209 105 306 105 l39 0 -25 51 c-21 42 -23 55 -15 83
l10 34 -66 4 c-80 6 -136 33 -183 88 -91 105 -74 259 39 360 84 75 115 83 368
90 121 3 221 7 223 8 1 1 2 -1 2 -5z m3207 -110 c27 -65 88 -209 134 -320 46
-112 86 -203 89 -203 3 0 32 69 65 152 33 83 92 226 130 317 l70 166 44 3 c52
4 58 26 -62 -253 -49 -115 -134 -315 -188 -444 -54 -129 -111 -250 -125 -269
-33 -43 -95 -72 -154 -72 -58 0 -72 10 -68 46 3 28 5 29 59 29 43 0 63 5 79
20 21 18 77 126 94 182 7 22 -27 110 -206 528 -50 116 -92 216 -95 223 -4 8 8
12 40 12 l44 0 50 -117z"/>
<path d="M5076 3170 c-65 -20 -109 -88 -110 -170 0 -66 24 -122 68 -153 43
-30 148 -32 188 -2 67 49 89 172 45 250 -14 26 -37 48 -67 63 -46 23 -76 26
-124 12z"/>
<path d="M7440 1799 c-25 -11 -66 -41 -92 -67 l-48 -46 0 -176 0 -176 48 -46
c67 -66 123 -91 197 -91 93 1 175 53 219 140 29 58 42 165 28 244 -20 114 -71
189 -154 223 -53 22 -143 20 -198 -5z"/>
<path d="M8420 1485 c-119 -37 -168 -141 -108 -227 66 -95 287 -65 375 50 30
40 33 49 33 118 l0 74 -127 -1 c-80 0 -145 -6 -173 -14z"/>
<path d="M3761 1838 c-58 -10 -112 -48 -142 -101 -21 -37 -24 -54 -24 -147 1
-154 45 -273 131 -348 102 -90 253 -60 310 61 41 89 30 257 -25 383 -19 43
-82 118 -111 134 -34 18 -96 26 -139 18z"/>
<path d="M4602 1838 c-114 -20 -172 -102 -172 -242 1 -175 84 -349 187 -392
89 -38 196 -2 248 80 55 90 45 277 -22 411 -24 50 -73 109 -104 125 -32 18
-95 26 -137 18z"/>
<path d="M6418 1811 c-65 -42 -90 -97 -86 -194 l3 -75 163 70 162 71 0 33 c0
40 -40 91 -87 110 -53 22 -104 17 -155 -15z"/>
<path d="M5355 1810 c-11 -4 -33 -22 -50 -40 -27 -28 -30 -39 -33 -108 -3 -61
1 -89 18 -136 30 -78 92 -141 148 -151 51 -8 122 21 148 60 60 92 -8 321 -110
369 -36 17 -88 20 -121 6z"/>
<path d="M5373 1105 c-124 -27 -183 -84 -183 -177 0 -115 130 -196 295 -186
135 9 210 69 208 168 -1 59 -20 89 -102 157 -58 47 -70 53 -110 52 -26 0 -74
-7 -108 -14z"/>
</g>
</svg>
